<svg width="46" height="46" viewBox="0 0 46 46" fill="none" xmlns="http://www.w3.org/2000/svg">
<g clip-path="url(#clip0_7631_27)">
<path d="M45.7809 22.8904C45.7809 10.2484 35.5325 0 22.8904 0C10.2484 0 0 10.2484 0 22.8904C0 35.5325 10.2484 45.7809 22.8904 45.7809C35.5325 45.7809 45.7809 35.5325 45.7809 22.8904Z" fill="#337FFF"/>
<path d="M28.4915 24.3806L29.1438 20.2362H25.1257V17.5424C25.1257 16.4091 25.6866 15.3018 27.4804 15.3018H29.3329V11.7726C28.2541 11.6005 27.164 11.5075 26.0715 11.4941C22.7644 11.4941 20.6053 13.4821 20.6053 17.0761V20.2362H16.9395V24.3806H20.6053V34.4049H25.1257V24.3806H28.4915Z" fill="white"/>
</g>
<defs>
<clipPath id="clip0_7631_27">
<rect width="46" height="46" fill="white"/>
</clipPath>
</defs>
</svg>
