<svg width="46" height="46" viewBox="0 0 46 46" fill="none" xmlns="http://www.w3.org/2000/svg">
<g clip-path="url(#clip0_7631_23)">
<path d="M23 46C35.7025 46 46 35.7025 46 23C46 10.2975 35.7025 0 23 0C10.2975 0 0 10.2975 0 23C0 35.7025 10.2975 46 23 46Z" fill="#337FFF"/>
<path d="M22.9955 11.7783C16.6391 11.7783 11.491 16.9309 11.491 23.2828C11.491 28.368 14.7883 32.6805 19.3568 34.1988C19.9318 34.3066 20.143 33.9518 20.143 33.6463C20.143 33.3723 20.134 32.649 20.1295 31.6922C16.9311 32.3885 16.2527 30.1469 16.2527 30.1469C15.7272 28.8172 14.9725 28.4623 14.9725 28.4623C13.9303 27.748 15.0533 27.7615 15.0533 27.7615C16.2078 27.8424 16.8143 28.9475 16.8143 28.9475C17.8385 30.7084 19.5096 30.2008 20.1654 29.9043C20.2688 29.1586 20.5652 28.651 20.8932 28.3635C18.3371 28.076 15.6508 27.0877 15.6508 22.6764C15.6508 21.4186 16.0955 20.3943 16.8367 19.5902C16.7065 19.2982 16.3201 18.1303 16.9356 16.5445C16.9356 16.5445 17.9014 16.2346 20.0981 17.726C21.019 17.4699 21.9983 17.3441 22.9731 17.3396C23.9524 17.3441 24.9272 17.4699 25.8481 17.726C28.0358 16.2391 28.9971 16.5445 28.9971 16.5445C29.617 18.1303 29.2262 19.2982 29.1139 19.5902C29.8461 20.3943 30.2953 21.423 30.2953 22.6764C30.2953 27.0967 27.6045 28.0715 25.044 28.3545C25.4483 28.7004 25.8211 29.4057 25.8211 30.4838C25.8211 32.0246 25.8076 33.26 25.8076 33.6328C25.8076 33.9338 26.0098 34.2932 26.5983 34.1809C31.2072 32.676 34.5 28.3635 34.5 23.2828C34.5 16.9309 29.3475 11.7783 22.9955 11.7783Z" fill="white"/>
</g>
<defs>
<clipPath id="clip0_7631_23">
<rect width="46" height="46" fill="white"/>
</clipPath>
</defs>
</svg>
