<svg width="46" height="46" viewBox="0 0 46 46" fill="none" xmlns="http://www.w3.org/2000/svg">
<g clip-path="url(#clip0_7631_30)">
<path d="M45.78 23.0413C45.78 10.5355 35.5318 0.397461 22.89 0.397461C10.2482 0.397461 0 10.5355 0 23.0413C0 35.5472 10.2482 45.6852 22.89 45.6852C35.5318 45.6852 45.78 35.5472 45.78 23.0413Z" fill="#337FFF"/>
<path fill-rule="evenodd" clip-rule="evenodd" d="M36.2481 16.5205C36.4416 15.9219 36.2481 15.4819 35.3273 15.4819H32.2826C31.5084 15.4819 31.1515 15.862 30.958 16.281C30.958 16.281 29.4096 19.7832 27.2162 22.0582C26.5065 22.7167 26.1839 22.9262 25.7969 22.9262C25.6033 22.9262 25.3232 22.7167 25.3232 22.1181V16.5205C25.3232 15.8021 25.0985 15.4819 24.4533 15.4819H19.6687C19.185 15.4819 18.894 15.8154 18.894 16.1314C18.894 16.8124 19.9907 16.9695 20.1037 18.8852V23.046C20.1037 23.9582 19.9262 24.1237 19.5391 24.1237C18.5069 24.1237 15.9961 20.6057 14.507 16.5803C14.2152 15.7979 13.9225 15.4819 13.1443 15.4819H10.0996C9.22966 15.4819 9.05566 15.862 9.05566 16.281C9.05566 17.0294 10.0879 20.7411 13.8619 25.6502C16.3779 29.0027 19.9228 30.82 23.1484 30.82C25.0838 30.82 25.3232 30.4164 25.3232 29.7212V27.1874C25.3232 26.3801 25.5066 26.2189 26.1195 26.2189C26.571 26.2189 27.3452 26.4285 29.1516 28.0449C31.216 29.9606 31.5564 30.82 32.7176 30.82H35.7623C36.6322 30.82 37.0672 30.4164 36.8163 29.6199C36.5417 28.826 35.556 27.6742 34.2482 26.3088C33.5385 25.5305 32.474 24.6924 32.1514 24.2732C31.6999 23.7345 31.8289 23.495 32.1514 23.0161C32.1514 23.0161 35.861 18.1668 36.2481 16.5205Z" fill="white"/>
</g>
<defs>
<clipPath id="clip0_7631_30">
<rect width="46" height="46" fill="white"/>
</clipPath>
</defs>
</svg>
